<svg width="24" height="24" viewBox="0 0 24 24" fill="none" xmlns="http://www.w3.org/2000/svg">
<path d="M18.663 10.84C18.663 10.9792 18.6078 11.1127 18.5096 11.2113C18.4114 11.3099 18.2781 11.3655 18.139 11.366H16.676V12.303H18.139C18.2782 12.303 18.4118 12.3584 18.5102 12.4568C18.6087 12.5553 18.664 12.6888 18.664 12.828C18.664 12.9673 18.6087 13.1008 18.5102 13.1993C18.4118 13.2977 18.2782 13.353 18.139 13.353H16.15C16.0113 13.352 15.8787 13.2962 15.781 13.1979C15.6832 13.0996 15.6282 12.9667 15.628 12.828V8.85205C15.628 8.56505 15.863 8.32704 16.153 8.32704H18.141C18.2746 8.33555 18.4 8.39469 18.4915 8.49241C18.583 8.59014 18.6338 8.71909 18.6336 8.85299C18.6333 8.98688 18.582 9.11564 18.4901 9.21301C18.3982 9.31039 18.2726 9.36905 18.139 9.37704H16.676V10.315H18.139C18.429 10.315 18.663 10.551 18.663 10.84ZM14.566 13.325C14.5123 13.3423 14.4563 13.3511 14.4 13.351C14.3176 13.3528 14.236 13.3347 14.162 13.2983C14.0881 13.2619 14.0239 13.2083 13.975 13.142L11.939 10.378V12.828C11.929 12.96 11.8695 13.0834 11.7724 13.1734C11.6753 13.2634 11.5478 13.3134 11.4155 13.3134C11.2831 13.3134 11.1556 13.2634 11.0585 13.1734C10.9615 13.0834 10.902 12.96 10.892 12.828V8.85205C10.8917 8.71377 10.9463 8.58105 11.0438 8.48299C11.1413 8.38494 11.2737 8.32957 11.412 8.32905C11.4921 8.33159 11.5706 8.35194 11.6419 8.38861C11.7131 8.42528 11.7753 8.47735 11.824 8.54105L13.876 11.316V8.85205C13.876 8.56505 14.111 8.32704 14.401 8.32704C14.688 8.32704 14.926 8.56505 14.926 8.85205V12.828C14.9257 12.9382 14.8908 13.0454 14.8262 13.1346C14.7616 13.2238 14.6705 13.2904 14.566 13.325ZM9.61598 13.352C9.47734 13.3513 9.34462 13.2958 9.24668 13.1976C9.14874 13.0995 9.0935 12.9667 9.09298 12.828V8.85205C9.09298 8.56505 9.32798 8.32704 9.61798 8.32704C9.90698 8.32704 10.142 8.56505 10.142 8.85205V12.828C10.1412 12.9671 10.0854 13.1002 9.98692 13.1984C9.88839 13.2966 9.75505 13.3518 9.61598 13.352ZM8.08598 13.352H6.09898C5.96015 13.3513 5.82722 13.2958 5.72897 13.1978C5.63071 13.0997 5.57503 12.9669 5.57398 12.828V8.85205C5.57398 8.56505 5.81198 8.32704 6.09898 8.32704C6.38898 8.32704 6.62398 8.56505 6.62398 8.85205V12.303H8.08798C8.22722 12.303 8.36075 12.3584 8.45921 12.4568C8.55766 12.5553 8.61298 12.6888 8.61298 12.828C8.61298 12.9673 8.55766 13.1008 8.45921 13.1993C8.36075 13.2977 8.22722 13.353 8.08798 13.353L8.08598 13.352ZM12.001 2.57204C6.48798 2.57204 2.00098 6.21504 2.00098 10.691C2.00098 14.7 5.55898 18.059 10.364 18.697C10.689 18.766 11.133 18.912 11.245 19.189C11.345 19.439 11.311 19.827 11.277 20.089L11.14 20.939C11.103 21.189 10.94 21.927 12.014 21.476C13.09 21.027 17.778 18.078 19.878 15.664C21.314 14.09 22 12.477 22 10.69C22 6.21404 17.512 2.57104 12 2.57104L12.001 2.57204Z" fill="white"/>
</svg>


