<svg width="15" height="15" viewBox="0 0 15 15" fill="none" xmlns="http://www.w3.org/2000/svg">
<path d="M10.625 3.75C11.3154 3.75 11.875 3.19036 11.875 2.5C11.875 1.80964 11.3154 1.25 10.625 1.25C9.93464 1.25 9.375 1.80964 9.375 2.5C9.375 3.19036 9.93464 3.75 10.625 3.75Z" fill="#AAAAAA"/>
<path d="M9.86063 6.8556C10.0041 7.0694 10.2099 7.23387 10.4501 7.32667C10.6902 7.41948 10.9532 7.43613 11.2031 7.37435L13.2756 6.85623L12.9737 5.64373L10.9012 6.16186L10.0394 4.86998C9.85523 4.59408 9.56945 4.40221 9.24438 4.33623L6.84062 3.85498C6.57171 3.80101 6.29251 3.83708 6.04614 3.95761C5.79978 4.07814 5.59994 4.27643 5.4775 4.52186L4.44125 6.59435L5.55938 7.15373L6.59563 5.08061L7.825 5.32686L4.64625 10.625H1.875V11.875H4.64625C5.0825 11.875 5.49313 11.6425 5.71813 11.2681L6.91688 9.27061L10.1475 9.91685L11.2825 13.3225L12.4675 12.9269L11.3331 9.52186C11.2631 9.31281 11.1393 9.1259 10.974 8.97997C10.8088 8.83403 10.608 8.73423 10.3919 8.6906L8.4925 8.31123L9.6 6.46498L9.86063 6.8556Z" fill="#AAAAAA"/>
</svg>
