<svg width="154" height="85" viewBox="0 0 154 85" fill="none" xmlns="http://www.w3.org/2000/svg">
<path d="M97.16 3.88C96.28 4.84 96 5.8 96 9.72V35.88H87.6V33.84H68.4V35.88H60V3.88H69.56C68.64 4.88 68.4 5.8 68.4 9.72V26H73.76V0.279999H83.32C82.48 1.24 82.16 2.16 82.16 6.12V26H87.6V3.88H97.16ZM33.04 52.12C31.96 52.12 31.12 52.76 29.84 54.24C27.24 57.16 24.2 59.8 19.44 63.24H23.6C23.04 63.4 22.48 65.56 22.48 66.36V83.24H14.44V66.76C11.68 68.64 8.44 70.8 4.64 73.32L0.16 66.2C16.04 57.08 23.2 50.96 25.84 45.92L33.04 52.12ZM74.28 74.4H63.12L64.28 82.32L56.44 83.84L55.08 74.4H41.2V66.36H53.88L53.32 62.52H43.32V54.48H52.16L51.24 48.08L59.8 46.56C59.48 46.92 59.36 47.44 59.36 48.04C59.36 48.52 59.48 49.08 59.56 49.68L60.24 54.48H71.32V62.52H61.4L61.96 66.36H74.28V74.4ZM113.64 55.8C112 61.92 110.84 66.56 107.32 71.44L109.44 73.16L103.96 79.76L101.56 77.64C99.2 79.76 96.28 82 92.64 84.48L87.44 78C90.76 76 93.4 74.12 95.52 72.32L90.88 68.28L96.04 62.24L101.16 66.4C103.12 63.68 103.76 61.44 104 59.8H94.32C92.56 62.16 90.2 65.04 87 68.6L81 63.04C89.72 54.28 91.84 49.64 92.6 45.72L101.2 49.16C99.84 49.4 99.52 50.92 99 51.92H103.64C106.36 51.92 108.96 51.72 109.64 50.92L113.64 55.8ZM153.04 52.12C151.96 52.12 151.12 52.76 149.84 54.24C147.24 57.16 144.2 59.8 139.44 63.24H143.6C143.04 63.4 142.48 65.56 142.48 66.36V83.24H134.44V66.76C131.68 68.64 128.44 70.8 124.64 73.32L120.16 66.2C136.04 57.08 143.2 50.96 145.84 45.92L153.04 52.12Z" fill="white"/>
</svg>
