<svg width="283" height="13" viewBox="0 0 283 13" fill="none" xmlns="http://www.w3.org/2000/svg">
<path d="M5.785 0.119L6.799 0.301C6.279 2.55 5.421 4.669 4.368 6.047C4.173 5.891 3.705 5.631 3.432 5.501C4.537 4.227 5.33 2.199 5.785 0.119ZM7.93 3.304H8.424V5.046C8.424 6.203 9.061 9.648 12.597 11.169C12.415 11.403 12.116 11.806 11.96 12.04C9.23 10.792 8.125 8.101 7.917 6.879C7.696 8.114 6.513 10.727 3.367 12.04C3.25 11.832 2.951 11.429 2.769 11.247C6.734 9.687 7.41 6.281 7.41 5.046V3.304H7.93ZM0.481 9.362C1.235 8.66 2.418 7.464 3.523 6.307L4.056 7.152C3.094 8.192 2.002 9.323 1.118 10.168L0.481 9.362ZM0.897 1.653L1.586 0.950999C2.431 1.497 3.484 2.316 3.991 2.875L3.263 3.668C2.769 3.096 1.742 2.238 0.897 1.653ZM5.811 2.433H11.661V3.395H5.369L5.811 2.433ZM11.323 2.433H11.479L11.661 2.368L12.376 2.771C12.038 4.019 11.427 5.371 10.946 6.242C10.738 6.125 10.361 5.93 10.114 5.826C10.543 5.046 11.102 3.668 11.323 2.667V2.433ZM18.59 0.872999H24.973V1.809H18.59V0.872999ZM22.386 4.747H23.374V10.792C23.374 11.403 23.231 11.702 22.789 11.858C22.347 12.001 21.606 12.014 20.332 12.014C20.293 11.741 20.163 11.338 20.02 11.052C20.943 11.078 21.814 11.078 22.048 11.065C22.308 11.052 22.386 11 22.386 10.779V4.747ZM18.018 4.461H25.35V5.384H18.018V4.461ZM15.418 5.462L16.276 4.617L16.393 4.669V12.079H15.418V5.462ZM16.926 2.862L17.849 3.213C16.835 4.864 15.301 6.541 13.936 7.633C13.793 7.438 13.455 7.009 13.247 6.827C14.599 5.865 16.029 4.357 16.926 2.862ZM16.393 0.0799996L17.329 0.456999C16.458 1.601 15.119 2.862 13.962 3.694C13.819 3.486 13.559 3.109 13.39 2.914C14.469 2.186 15.73 1.016 16.393 0.0799996ZM28.197 2.095C30.004 2.316 31.707 2.342 33.033 2.212C34.099 2.121 35.165 1.9 36.101 1.588L36.244 2.537C35.399 2.784 34.294 3.005 33.254 3.096C31.941 3.226 30.121 3.226 28.262 3.044L28.197 2.095ZM27.937 4.76C30.16 4.994 32.37 4.955 33.891 4.773C35.126 4.643 36.179 4.383 36.868 4.175L37.037 5.137C36.322 5.332 35.334 5.527 34.242 5.657C32.643 5.865 30.238 5.904 28.002 5.735L27.937 4.76ZM32.383 1.926C32.279 1.549 32.162 1.146 32.019 0.768999L33.124 0.626C33.254 1.718 33.657 3.031 33.982 3.954C34.333 4.968 34.905 6.216 35.581 7.217C35.724 7.425 35.88 7.607 36.075 7.776L35.529 8.569C34.801 8.387 33.592 8.257 32.695 8.166L32.773 7.373C33.475 7.438 34.32 7.529 34.723 7.581C34.008 6.463 33.462 5.215 33.085 4.162C32.76 3.265 32.565 2.576 32.383 1.926ZM29.835 7.568C29.523 8.01 29.289 8.452 29.289 9.037C29.289 10.103 30.238 10.649 32.279 10.649C33.488 10.649 34.437 10.558 35.386 10.376L35.334 11.403C34.424 11.559 33.41 11.637 32.292 11.637C29.757 11.637 28.327 10.883 28.301 9.206C28.301 8.465 28.522 7.919 28.821 7.347L29.835 7.568ZM44.551 0.782C44.473 1.068 44.382 1.562 44.33 1.809C44.135 2.745 43.862 4.214 43.498 5.514C43.03 7.36 42.159 10.051 41.47 11.468L40.339 11.091C41.119 9.739 42.029 7.1 42.523 5.267C42.835 4.071 43.173 2.433 43.264 1.757C43.316 1.393 43.342 0.950999 43.316 0.678L44.551 0.782ZM41.678 2.953C43.108 2.953 45.019 2.719 46.631 2.316V3.33C45.019 3.694 43.056 3.915 41.652 3.915C41.08 3.915 40.625 3.902 40.144 3.863L40.118 2.849C40.729 2.927 41.197 2.953 41.678 2.953ZM45.786 4.734C46.462 4.669 47.333 4.63 48.165 4.63C48.919 4.63 49.712 4.656 50.414 4.734L50.388 5.722C49.712 5.644 48.958 5.566 48.191 5.566C47.385 5.566 46.579 5.618 45.786 5.709V4.734ZM46.046 7.893C45.942 8.322 45.864 8.725 45.864 9.063C45.864 9.674 46.215 10.272 48.061 10.272C48.919 10.272 49.803 10.181 50.609 10.025L50.57 11.065C49.868 11.169 48.997 11.247 48.048 11.247C46.007 11.247 44.889 10.623 44.889 9.336C44.889 8.842 44.967 8.348 45.084 7.802L46.046 7.893ZM54.639 1.939C54.574 2.238 54.535 2.862 54.522 3.2C54.509 4.006 54.522 5.202 54.613 6.268C54.834 8.439 55.458 9.882 56.394 9.882C57.057 9.882 57.668 8.543 58.006 7.243L58.825 8.166C58.032 10.363 57.252 11.117 56.368 11.117C55.133 11.117 53.963 9.895 53.599 6.528C53.482 5.41 53.456 3.824 53.456 3.07C53.456 2.771 53.456 2.212 53.378 1.913L54.639 1.939ZM61.399 2.29C62.569 3.798 63.505 6.567 63.7 8.764L62.647 9.18C62.426 6.84 61.633 4.162 60.398 2.641L61.399 2.29ZM70.603 0.352999H71.63V10.415H70.603V0.352999ZM66.04 3.187H67.028V11.884H66.04V3.187ZM75.348 3.174H76.349V11.832H75.348V3.174ZM66.521 9.83H75.79V10.831H66.521V9.83ZM83.122 0.912C83.07 1.146 83.018 1.432 82.966 1.679C82.875 2.147 82.706 3.213 82.524 4.019C82.082 5.852 81.159 9.089 79.69 11.455L78.624 11.039C80.106 9.05 81.146 5.579 81.497 3.993C81.744 2.953 81.913 1.783 81.913 0.782L83.122 0.912ZM87.594 2.407C88.4 3.46 89.531 5.826 89.973 7.022L88.959 7.503C88.582 6.177 87.555 3.915 86.645 2.836L87.594 2.407ZM78.442 3.759C78.845 3.785 79.183 3.772 79.599 3.759C80.574 3.733 83.213 3.447 84.097 3.447C85.254 3.447 86.203 3.889 86.203 5.644C86.203 7.191 85.995 9.258 85.449 10.337C85.046 11.208 84.396 11.429 83.551 11.429C83.057 11.429 82.433 11.338 82.03 11.234L81.848 10.155C82.394 10.324 83.083 10.415 83.447 10.415C83.928 10.415 84.318 10.311 84.578 9.752C84.994 8.868 85.202 7.178 85.202 5.774C85.202 4.578 84.656 4.357 83.824 4.357C82.953 4.357 80.509 4.656 79.716 4.734C79.417 4.773 78.884 4.838 78.546 4.89L78.442 3.759ZM87.737 0.521999C88.062 0.989999 88.53 1.783 88.803 2.316L88.101 2.628C87.841 2.095 87.399 1.315 87.035 0.820999L87.737 0.521999ZM89.167 0.0019998C89.518 0.483 90.012 1.302 90.272 1.783L89.557 2.095C89.284 1.523 88.855 0.782 88.478 0.301L89.167 0.0019998ZM93.886 3.577V4.916H100.191V3.577H93.886ZM93.886 5.735V7.087H100.191V5.735H93.886ZM93.886 1.419V2.745H100.191V1.419H93.886ZM92.937 0.548H101.179V7.971H92.937V0.548ZM97.877 7.334H98.865V10.571C98.865 10.948 98.969 11.013 99.528 11.013C99.801 11.013 101.114 11.013 101.465 11.013C101.998 11.013 102.089 10.792 102.141 9.167C102.349 9.349 102.778 9.505 103.051 9.57C102.934 11.468 102.648 11.949 101.543 11.949C101.27 11.949 99.697 11.949 99.437 11.949C98.202 11.949 97.877 11.65 97.877 10.571V7.334ZM94.744 7.607H95.797C95.524 9.921 94.744 11.338 91.611 12.053C91.52 11.806 91.247 11.403 91.052 11.195C93.912 10.623 94.523 9.505 94.744 7.607ZM104.416 4.214C104.897 4.136 105.365 3.993 105.859 3.85C106.951 3.499 109.512 2.563 111.41 2.563C113.555 2.563 115.271 3.811 115.271 5.982C115.271 9.102 112.177 10.597 108.173 10.831L107.705 9.752C111.098 9.661 114.14 8.621 114.14 5.969C114.14 4.604 113.139 3.525 111.384 3.525C109.239 3.525 105.937 4.955 104.897 5.371L104.416 4.214ZM122.096 0.86C122.044 1.107 121.992 1.38 121.94 1.64C121.862 2.108 121.68 3.174 121.511 3.98C121.069 5.8 120.133 9.037 118.664 11.416L117.611 10.987C119.093 9.011 120.133 5.54 120.484 3.941C120.718 2.914 120.9 1.744 120.9 0.743L122.096 0.86ZM126.581 2.251C127.387 3.304 128.518 5.696 128.947 6.905L127.946 7.386C127.556 6.047 126.542 3.746 125.632 2.68L126.581 2.251ZM117.416 3.72C117.832 3.733 118.17 3.733 118.586 3.72C119.548 3.694 122.187 3.395 123.071 3.395C124.228 3.395 125.177 3.837 125.177 5.605C125.177 7.152 124.969 9.219 124.436 10.298C124.02 11.169 123.37 11.377 122.538 11.377C122.031 11.377 121.42 11.286 121.004 11.195L120.835 10.103C121.381 10.272 122.057 10.376 122.421 10.376C122.902 10.376 123.292 10.272 123.565 9.7C123.981 8.829 124.176 7.126 124.176 5.722C124.176 4.539 123.63 4.318 122.798 4.318C121.927 4.318 119.496 4.604 118.703 4.682C118.404 4.721 117.858 4.786 117.533 4.838L117.416 3.72ZM132.444 1.432C132.73 1.458 133.094 1.471 133.354 1.471C134.043 1.471 137.124 1.38 137.813 1.315C138.203 1.276 138.385 1.25 138.528 1.198L139.126 1.965C138.892 2.121 138.632 2.29 138.385 2.485C137.748 2.979 135.98 4.5 134.966 5.332C135.564 5.137 136.188 5.072 136.773 5.072C138.931 5.072 140.478 6.359 140.478 8.114C140.478 10.207 138.749 11.572 135.993 11.572C134.225 11.572 133.146 10.805 133.146 9.713C133.146 8.829 133.952 8.023 135.148 8.023C136.877 8.023 137.748 9.245 137.839 10.558L136.903 10.714C136.825 9.609 136.188 8.816 135.148 8.816C134.55 8.816 134.095 9.18 134.095 9.635C134.095 10.272 134.81 10.649 135.837 10.649C138.047 10.649 139.438 9.739 139.438 8.114C139.438 6.827 138.216 5.878 136.513 5.878C134.355 5.878 133.185 6.788 131.547 8.465L130.793 7.711C131.872 6.827 133.549 5.423 134.29 4.786C135.018 4.188 136.656 2.823 137.306 2.238C136.617 2.277 134.017 2.381 133.341 2.42C133.042 2.446 132.756 2.459 132.47 2.498L132.444 1.432ZM144.573 0.964H153.088V11.845H152.061V1.952H145.574V11.897H144.573V0.964ZM145.236 5.475H152.49V6.437H145.236V5.475ZM145.223 10.077H152.516V11.052H145.223V10.077ZM156.052 2.823H167.401V3.811H156.052V2.823ZM158.652 8.621H164.71V9.609H158.652V8.621ZM161.187 0.0929994H162.214V12.04H161.187V0.0929994ZM160.888 3.148L161.759 3.447C160.602 6.203 158.561 8.686 156.312 9.999C156.156 9.752 155.831 9.388 155.61 9.193C157.781 8.062 159.848 5.644 160.888 3.148ZM162.539 3.187C163.566 5.657 165.607 8.023 167.856 9.102C167.609 9.31 167.271 9.7 167.115 9.973C164.814 8.699 162.812 6.216 161.668 3.486L162.539 3.187ZM171.405 2.758V3.681H177.931V2.758H171.405ZM171.405 1.198V2.095H177.931V1.198H171.405ZM170.456 0.496H178.893V4.37H170.456V0.496ZM168.909 5.098H180.362V5.904H168.909V5.098ZM174.681 6.723H179.309V7.516H174.681V6.723ZM170.599 6.801H173.81V7.529H170.599V6.801ZM170.599 8.439H173.81V9.167H170.599V8.439ZM176.046 7.451C176.8 9.31 178.464 10.727 180.674 11.273C180.466 11.455 180.206 11.806 180.076 12.04C177.788 11.364 176.111 9.817 175.253 7.685L176.046 7.451ZM179.01 6.723H179.192L179.361 6.684L179.959 6.931C179.101 9.57 177.008 11.195 174.746 11.975C174.642 11.741 174.395 11.39 174.213 11.208C176.293 10.584 178.295 9.063 179.01 6.879V6.723ZM168.792 10.428C170.066 10.324 171.951 10.116 173.784 9.908V10.714C172.029 10.922 170.222 11.143 168.883 11.299L168.792 10.428ZM173.29 5.358H174.226V12.04H173.29V5.358ZM170.027 5.371H170.937V10.662H170.027V5.371ZM181.896 3.824H193.323V4.812H181.896V3.824ZM188.227 4.214C189.072 7.36 190.84 9.986 193.544 11.104C193.297 11.325 192.972 11.741 192.803 12.014C189.995 10.688 188.227 7.945 187.252 4.448L188.227 4.214ZM187.083 0.0929994H188.136C188.084 3.499 188.058 9.427 182.377 12.027C182.221 11.767 181.909 11.416 181.636 11.221C187.161 8.816 187.057 3.213 187.083 0.0929994ZM201.344 2.134C201.175 3.486 200.915 5.007 200.512 6.398C199.719 9.063 198.679 10.441 197.483 10.441C196.313 10.441 195.156 9.115 195.156 6.957C195.156 4.136 197.665 1.679 200.85 1.679C203.892 1.679 205.829 3.824 205.829 6.463C205.829 9.18 204.035 11 200.941 11.403L200.343 10.441C200.759 10.402 201.149 10.35 201.461 10.285C203.125 9.908 204.763 8.66 204.763 6.411C204.763 4.331 203.32 2.615 200.824 2.615C197.964 2.615 196.183 4.968 196.183 6.879C196.183 8.517 196.924 9.245 197.509 9.245C198.12 9.245 198.822 8.361 199.485 6.164C199.862 4.929 200.135 3.46 200.265 2.108L201.344 2.134ZM212.888 0.352999H213.915V10.415H212.888V0.352999ZM208.325 3.187H209.313V11.884H208.325V3.187ZM217.633 3.174H218.634V11.832H217.633V3.174ZM208.806 9.83H218.075V10.831H208.806V9.83ZM225.446 7.529H230.62V8.283H225.446V7.529ZM224.237 1.107H231.959V1.848H224.237V1.107ZM224.549 2.68H231.634V3.395H224.549V2.68ZM223.834 4.305H232.336V5.046H223.834V4.305ZM225.446 9.271H230.659V9.999H225.446V9.271ZM224.783 5.813H230.62V6.567H225.693V12.027H224.783V5.813ZM230.386 5.813H231.322V10.948C231.322 11.442 231.218 11.702 230.854 11.845C230.49 11.988 229.905 12.001 228.982 11.988C228.943 11.754 228.813 11.39 228.696 11.143C229.346 11.169 229.97 11.169 230.152 11.156C230.334 11.156 230.386 11.104 230.386 10.935V5.813ZM227.565 0.0799996H228.527V4.539H227.565V0.0799996ZM221.858 0.0799996H222.755V12.027H221.858V0.0799996ZM220.831 2.589L221.559 2.693C221.52 3.707 221.299 5.215 221 6.19L220.246 5.943C220.545 5.046 220.753 3.616 220.831 2.589ZM222.872 2.251L223.522 1.991C223.808 2.589 224.12 3.356 224.237 3.837L223.561 4.162C223.431 3.668 223.132 2.862 222.872 2.251ZM240.058 5.111H244.309V5.917H240.058V5.111ZM239.564 0.690999H244.218V1.562H240.461V12.053H239.564V0.690999ZM243.75 0.690999H244.66V3.2C244.66 3.681 244.556 3.941 244.153 4.084C243.75 4.227 243.1 4.24 242.099 4.24C242.06 3.98 241.93 3.629 241.8 3.382C242.606 3.408 243.282 3.408 243.49 3.395C243.698 3.382 243.75 3.33 243.75 3.187V0.690999ZM241.332 5.644C242.034 8.075 243.503 10.298 245.453 11.247C245.232 11.442 244.933 11.793 244.777 12.04C242.775 10.909 241.332 8.543 240.565 5.839L241.332 5.644ZM244.01 5.111H244.192L244.361 5.059L244.959 5.28C244.452 8.101 243.165 10.662 241.085 12.066C240.942 11.845 240.656 11.572 240.435 11.403C242.385 10.129 243.607 7.698 244.01 5.319V5.111ZM233.831 1.419H238.654V2.264H233.831V1.419ZM233.675 8.53H238.823V9.375H233.675V8.53ZM233.363 3.564H239.148V4.409H233.363V3.564ZM233.545 6.268H238.992V7.113H233.545V6.268ZM235.833 0.105999H236.743V3.863H235.833V0.105999ZM235.833 6.619H236.743V12.014H235.833V6.619ZM237.588 4.357L238.42 4.578C238.16 5.202 237.913 5.878 237.666 6.333L236.938 6.112C237.159 5.631 237.445 4.864 237.588 4.357ZM234.273 4.565L235.014 4.383C235.3 4.929 235.56 5.67 235.625 6.125L234.845 6.346C234.78 5.878 234.533 5.137 234.273 4.565ZM255.125 5.033C255.125 8.491 254.371 10.272 251.407 11.611L250.536 10.779C252.902 9.882 254.072 8.764 254.072 5.111V1.952C254.072 1.445 254.033 1.016 254.007 0.899H255.19C255.177 1.029 255.125 1.445 255.125 1.952V5.033ZM250.432 0.977C250.419 1.094 250.38 1.471 250.38 1.913V6.684C250.38 7.165 250.419 7.737 250.432 7.854H249.275C249.288 7.737 249.34 7.178 249.34 6.684V1.913C249.34 1.64 249.314 1.276 249.275 0.977H250.432ZM246.636 3.499C246.753 3.512 247.39 3.59 247.936 3.59H256.542C257.127 3.59 257.556 3.538 257.738 3.512V4.617C257.595 4.604 257.127 4.578 256.555 4.578H247.936C247.364 4.578 246.779 4.617 246.636 4.617V3.499ZM259.818 6.307C262.067 5.709 264.043 4.786 265.486 3.889C266.851 3.031 268.151 1.913 269.048 0.820999L269.919 1.64C268.801 2.797 267.436 3.889 265.915 4.838C264.485 5.722 262.418 6.671 260.325 7.321L259.818 6.307ZM265.278 4.422L266.396 4.084V10.025C266.396 10.506 266.422 11.156 266.487 11.403H265.2C265.239 11.156 265.278 10.506 265.278 10.025V4.422ZM276.003 9.856C276.003 9.128 276.003 3.382 276.003 2.303C276.003 1.926 275.977 1.354 275.912 0.937999H277.186C277.134 1.341 277.095 1.9 277.095 2.303C277.095 4.318 277.108 9.245 277.108 9.856C277.108 10.272 277.134 10.974 277.186 11.403H275.925C275.99 10.987 276.003 10.337 276.003 9.856ZM276.861 4.357C278.577 4.851 281.203 5.852 282.646 6.554L282.191 7.659C280.709 6.866 278.278 5.943 276.861 5.501V4.357Z" fill="white"/>
</svg>
