<svg width="15" height="15" viewBox="0 0 15 15" fill="none" xmlns="http://www.w3.org/2000/svg">
<g clip-path="url(#clip0_454_895)">
<path d="M9.37509 1.25C9.95965 1.24994 10.5325 1.41384 11.0286 1.72308C11.5246 2.03232 11.924 2.4745 12.1813 2.99937L12.2401 3.125H13.1251C13.231 3.12499 13.3351 3.15189 13.4278 3.20315C13.5204 3.25442 13.5985 3.32837 13.6547 3.41809C13.7109 3.5078 13.7435 3.61033 13.7492 3.71605C13.755 3.82177 13.7338 3.92722 13.6876 4.0225L13.6451 4.09687L12.6751 5.55125C12.6007 5.66307 12.5643 5.79588 12.5713 5.93L12.5801 6.01L12.6682 6.49375C13.2863 9.8925 10.7257 13.0256 7.29759 13.1225L7.13384 13.125H1.87509C1.76194 13.125 1.65091 13.0943 1.55384 13.0362C1.45677 12.978 1.3773 12.8946 1.32392 12.7949C1.27054 12.6951 1.24525 12.5827 1.25074 12.4697C1.25623 12.3567 1.29229 12.2473 1.35509 12.1531L3.85009 8.39688L5.10759 6.525L6.00822 5.17313C6.16594 4.93683 6.25011 4.6591 6.25009 4.375C6.25009 3.5462 6.57933 2.75134 7.16538 2.16529C7.75144 1.57924 8.54629 1.25 9.37509 1.25ZM9.37509 2.5C8.89684 2.49997 8.43665 2.6827 8.08868 3.0108C7.74071 3.3389 7.53128 3.78757 7.50322 4.265L7.50009 4.375C7.50018 4.81048 7.39443 5.23945 7.19197 5.625C7.77137 5.62616 8.32665 5.85714 8.73594 6.26725C9.14523 6.67736 9.37509 7.2331 9.37509 7.8125C9.37509 8.6675 8.95322 9.33125 8.38634 9.82938C7.83072 10.3169 7.10447 10.6769 6.38634 10.9581C5.87009 11.16 5.33259 11.3306 4.83072 11.48L3.61509 11.8331L3.47509 11.875H7.13322C9.86322 11.875 11.9263 9.40312 11.4376 6.7175L11.3501 6.23375C11.2631 5.75568 11.365 5.26249 11.6345 4.85812L11.957 4.375C11.6195 4.375 11.287 4.27875 11.1907 3.90625C11.0866 3.50385 10.8518 3.14741 10.5232 2.89289C10.1946 2.63837 9.79075 2.50018 9.37509 2.5ZM7.18759 6.875C7.01822 6.875 6.77322 6.91875 6.54009 7.00562C6.30572 7.09312 6.17634 7.19 6.13134 7.24187L4.01634 10.415C4.64009 10.2356 5.30697 10.0381 5.93072 9.79375C6.59759 9.53312 7.16697 9.23625 7.56134 8.89C7.94384 8.55438 8.12509 8.2075 8.12509 7.8125C8.12509 7.56386 8.02632 7.3254 7.85051 7.14959C7.67469 6.97377 7.43623 6.875 7.18759 6.875ZM9.37509 3.75C9.54085 3.75 9.69983 3.81585 9.81704 3.93306C9.93425 4.05027 10.0001 4.20924 10.0001 4.375C10.0001 4.54076 9.93425 4.69973 9.81704 4.81694C9.69983 4.93415 9.54085 5 9.37509 5C9.20933 5 9.05036 4.93415 8.93315 4.81694C8.81594 4.69973 8.75009 4.54076 8.75009 4.375C8.75009 4.20924 8.81594 4.05027 8.93315 3.93306C9.05036 3.81585 9.20933 3.75 9.37509 3.75Z" fill="black"/>
</g>
<defs>
<clipPath id="clip0_454_895">
<rect width="15" height="15" fill="white"/>
</clipPath>
</defs>
</svg>
