<svg width="114" height="95" viewBox="0 0 114 95" fill="none" xmlns="http://www.w3.org/2000/svg">
<path d="M55.3158 2.62972C56.1026 1.40124 57.8974 1.40124 58.6842 2.62971L112.028 85.9214C112.881 87.2525 111.925 89 110.344 89H3.65592C2.07512 89 1.11916 87.2525 1.97172 85.9214L55.3158 2.62972Z" fill="#FFF500"/>
<path d="M112.482 79.5516L67.1637 8.26516C66.1228 6.66193 64.6378 5.33277 62.8556 4.40928C61.0733 3.48579 59.0558 3 57.0026 3C54.9494 3 52.9318 3.48579 51.1496 4.40928C49.3674 5.33277 47.8823 6.66193 46.8415 8.26516L1.52321 79.5516C0.525685 81.0985 0 82.8578 0 84.6492C0 86.4407 0.525685 88.2 1.52321 89.7468C2.55016 91.3613 4.03326 92.6989 5.82002 93.622C7.60677 94.5452 9.6327 95.0206 11.6895 94.9993H102.316C104.371 95.0189 106.394 94.5427 108.179 93.6196C109.964 92.6966 111.446 91.3599 112.472 89.7468C113.471 88.2008 113.998 86.442 114 84.6505C114.002 82.859 113.478 81.0993 112.482 79.5516ZM107.088 86.9258C106.604 87.6801 105.906 88.3039 105.067 88.7329C104.229 89.1619 103.279 89.3806 102.316 89.3666H11.6895C10.7264 89.3806 9.77652 89.1619 8.93773 88.7329C8.09894 88.3039 7.40152 87.6801 6.91725 86.9258C6.46427 86.2356 6.22519 85.4475 6.22519 84.6445C6.22519 83.8416 6.46427 83.0535 6.91725 82.3633L52.2303 11.0768C52.7257 10.3313 53.4255 9.71458 54.2617 9.28642C55.0979 8.85827 56.0421 8.63327 57.0026 8.63327C57.9631 8.63327 58.9073 8.85827 59.7435 9.28642C60.5797 9.71458 61.2795 10.3313 61.7748 11.0768L107.093 82.3633C107.545 83.0539 107.783 83.8422 107.783 84.6452C107.782 85.4481 107.542 86.236 107.088 86.9258ZM53.8936 58.3868V39.6111C53.8936 38.8642 54.2212 38.1478 54.8042 37.6197C55.3873 37.0915 56.178 36.7948 57.0026 36.7948C57.8271 36.7948 58.6179 37.0915 59.201 37.6197C59.784 38.1478 60.1115 38.8642 60.1115 39.6111V58.3868C60.1115 59.1337 59.784 59.8501 59.201 60.3782C58.6179 60.9064 57.8271 61.2031 57.0026 61.2031C56.178 61.2031 55.3873 60.9064 54.8042 60.3782C54.2212 59.8501 53.8936 59.1337 53.8936 58.3868ZM62.1842 75.2849C62.1842 76.2132 61.8803 77.1208 61.3109 77.8927C60.7416 78.6646 59.9323 79.2662 58.9855 79.6215C58.0387 79.9768 56.9968 80.0697 55.9917 79.8886C54.9866 79.7075 54.0633 79.2604 53.3386 78.604C52.614 77.9475 52.1205 77.1111 51.9205 76.2006C51.7206 75.2901 51.8232 74.3463 52.2154 73.4886C52.6076 72.6309 53.2717 71.8978 54.1238 71.382C54.9759 70.8662 55.9778 70.591 57.0026 70.591C58.3768 70.591 59.6948 71.0855 60.6665 71.9658C61.6383 72.846 62.1842 74.04 62.1842 75.2849Z" fill="#222222"/>
</svg>
