<svg width="9" height="9" viewBox="0 0 9 9" fill="none" xmlns="http://www.w3.org/2000/svg">
<path d="M1.91922 7.33833C1.9172 7.26125 1.93041 7.18528 1.9581 7.11478C1.98579 7.04427 2.02742 6.9806 2.08058 6.92744C2.13374 6.87428 2.1974 6.83266 2.26791 6.80497C2.33842 6.77728 2.41439 6.76406 2.49146 6.76608L6.04479 6.85293L0.848582 1.65672C0.736083 1.54422 0.670749 1.39377 0.666953 1.23846C0.663158 1.08316 0.72121 0.935727 0.828342 0.828595C0.935473 0.721464 1.08291 0.663411 1.23821 0.667206C1.39351 0.671002 1.54396 0.736336 1.65646 0.848836L6.85267 6.04504L6.7665 2.49104C6.76269 2.33547 6.82085 2.18778 6.92817 2.08047C7.03548 1.97315 7.18317 1.91499 7.33875 1.9188C7.49432 1.9226 7.64503 1.98805 7.75772 2.10074C7.87042 2.21344 7.93587 2.36415 7.93967 2.51972L8.06111 7.48844C8.06313 7.56551 8.04991 7.64148 8.02222 7.71199C7.99453 7.7825 7.95291 7.84616 7.89975 7.89933C7.84658 7.95249 7.78292 7.99411 7.71241 8.0218C7.6419 8.04949 7.56593 8.06271 7.48886 8.06069L2.52014 7.93925C2.44307 7.9375 2.36637 7.92055 2.29442 7.88938C2.22247 7.85821 2.1567 7.81342 2.10087 7.75759C2.04504 7.70177 2.00026 7.63599 1.96908 7.56405C1.93791 7.4921 1.92097 7.41539 1.91922 7.33833Z" fill="#222222"/>
</svg>
