<svg width="9" height="9" viewBox="0 0 9 9" fill="none" xmlns="http://www.w3.org/2000/svg">
<path d="M7.33833 6.80881C7.26125 6.81083 7.18528 6.79761 7.11478 6.76992C7.04427 6.74223 6.9806 6.70061 6.92744 6.64745C6.87428 6.59428 6.83266 6.53062 6.80497 6.46011C6.77728 6.3896 6.76406 6.31363 6.76608 6.23656L6.85293 2.68324L1.65672 7.87945C1.54422 7.99194 1.39377 8.05728 1.23846 8.06107C1.08316 8.06487 0.935727 8.00682 0.828595 7.89969C0.721464 7.79255 0.663411 7.64512 0.667206 7.48982C0.671002 7.33451 0.736336 7.18406 0.848836 7.07156L6.04504 1.87536L2.49104 1.96153C2.33547 1.96533 2.18778 1.90718 2.08047 1.79986C1.97315 1.69254 1.91499 1.54485 1.9188 1.38928C1.9226 1.23371 1.98805 1.083 2.10074 0.970304C2.21344 0.85761 2.36415 0.792162 2.51972 0.78836L7.48844 0.666918C7.56551 0.6649 7.64148 0.678116 7.71199 0.705806C7.7825 0.733496 7.84616 0.775117 7.89933 0.828281C7.95249 0.881445 7.99411 0.945107 8.0218 1.01562C8.04949 1.08613 8.06271 1.16209 8.06069 1.23917L7.93925 6.20789C7.9375 6.28495 7.92055 6.36166 7.88938 6.43361C7.85821 6.50556 7.81342 6.57133 7.75759 6.62716C7.70177 6.68299 7.63599 6.72777 7.56405 6.75894C7.4921 6.79011 7.41539 6.80706 7.33833 6.80881Z" fill="#222222"/>
</svg>
