<svg width="21" height="17" viewBox="0 0 21 17" fill="none" xmlns="http://www.w3.org/2000/svg">
<path d="M8.5 4.33333H11.8333M1.41667 10.5833C1.41667 10.5833 4.75 2.66667 5.16667 1.83333C5.58333 1 6.41667 1 6.83333 1C7.25 1 8.5 1 8.5 2.66667V11.8333H11.8333V2.66667C11.8333 1 13.0833 1 13.5 1C13.9167 1 14.75 1 15.1667 1.83333C15.5833 2.66667 18.9167 10.5833 18.9167 10.5833M15.5833 16C16.0758 16 16.5634 15.903 17.0184 15.7145C17.4734 15.5261 17.8868 15.2499 18.235 14.9016C18.5832 14.5534 18.8594 14.14 19.0479 13.6851C19.2363 13.2301 19.3333 12.7425 19.3333 12.25C19.3333 11.7575 19.2363 11.2699 19.0479 10.8149C18.8594 10.36 18.5832 9.94657 18.235 9.59835C17.8868 9.25013 17.4734 8.97391 17.0184 8.78545C16.5634 8.597 16.0758 8.5 15.5833 8.5C14.5888 8.5 13.6349 8.89509 12.9317 9.59835C12.2284 10.3016 11.8333 11.2554 11.8333 12.25C11.8333 13.2446 12.2284 14.1984 12.9317 14.9016C13.6349 15.6049 14.5888 16 15.5833 16ZM4.75 16C4.25754 16 3.76991 15.903 3.31494 15.7145C2.85997 15.5261 2.44657 15.2499 2.09835 14.9016C1.75013 14.5534 1.47391 14.14 1.28545 13.6851C1.097 13.2301 1 12.7425 1 12.25C1 11.7575 1.097 11.2699 1.28545 10.8149C1.47391 10.36 1.75013 9.94657 2.09835 9.59835C2.44657 9.25013 2.85997 8.97391 3.31494 8.78545C3.76991 8.597 4.25754 8.5 4.75 8.5C5.74456 8.5 6.69839 8.89509 7.40165 9.59835C8.10491 10.3016 8.5 11.2554 8.5 12.25C8.5 13.2446 8.10491 14.1984 7.40165 14.9016C6.69839 15.6049 5.74456 16 4.75 16Z" stroke="#222222" stroke-width="1.66667"/>
</svg>
