<svg width="14" height="14" viewBox="0 0 14 14" fill="none" xmlns="http://www.w3.org/2000/svg">
<g clip-path="url(#clip0_454_947)">
<path fill-rule="evenodd" clip-rule="evenodd" d="M2.47925 11.0833C2.47925 10.9672 2.52534 10.8559 2.60739 10.7739C2.68944 10.6918 2.80072 10.6458 2.91675 10.6458H11.0834C11.1994 10.6458 11.3107 10.6918 11.3928 10.7739C11.4748 10.8559 11.5209 10.9672 11.5209 11.0833C11.5209 11.1993 11.4748 11.3106 11.3928 11.3926C11.3107 11.4747 11.1994 11.5208 11.0834 11.5208H2.91675C2.80072 11.5208 2.68944 11.4747 2.60739 11.3926C2.52534 11.3106 2.47925 11.1993 2.47925 11.0833ZM4.22925 12.8333C4.22925 12.7172 4.27534 12.6059 4.35739 12.5239C4.43944 12.4418 4.55072 12.3958 4.66675 12.3958H9.33342C9.44945 12.3958 9.56073 12.4418 9.64277 12.5239C9.72482 12.6059 9.77092 12.7172 9.77092 12.8333C9.77092 12.9493 9.72482 13.0606 9.64277 13.1426C9.56073 13.2247 9.44945 13.2708 9.33342 13.2708H4.66675C4.55072 13.2708 4.43944 13.2247 4.35739 13.1426C4.27534 13.0606 4.22925 12.9493 4.22925 12.8333Z" fill="black"/>
<path d="M3.5485 8.89579C3.21946 8.29621 3.05227 7.62125 3.06339 6.93741C3.07452 6.25356 3.26358 5.58441 3.61195 4.99585C3.96032 4.40729 4.45599 3.91961 5.05014 3.58086C5.6443 3.24211 6.31644 3.06396 7.00037 3.06396C7.68431 3.06396 8.35645 3.24211 8.9506 3.58086C9.54475 3.91961 10.0404 4.40729 10.3888 4.99585C10.7372 5.58441 10.9262 6.25356 10.9374 6.93741C10.9485 7.62125 10.7813 8.29621 10.4522 8.89579H12.8334C12.9494 8.89579 13.0607 8.94188 13.1428 9.02393C13.2248 9.10598 13.2709 9.21726 13.2709 9.33329C13.2709 9.44932 13.2248 9.5606 13.1428 9.64265C13.0607 9.7247 12.9494 9.77079 12.8334 9.77079H1.16675C1.05072 9.77079 0.939436 9.7247 0.857389 9.64265C0.775342 9.5606 0.729248 9.44932 0.729248 9.33329C0.729248 9.21726 0.775342 9.10598 0.857389 9.02393C0.939436 8.94188 1.05072 8.89579 1.16675 8.89579H3.5485Z" fill="black"/>
<path fill-rule="evenodd" clip-rule="evenodd" d="M7.00008 0.729126C7.11611 0.729126 7.22739 0.77522 7.30944 0.857267C7.39149 0.939314 7.43758 1.05059 7.43758 1.16663V1.74996C7.43758 1.86599 7.39149 1.97727 7.30944 2.05932C7.22739 2.14137 7.11611 2.18746 7.00008 2.18746C6.88405 2.18746 6.77277 2.14137 6.69072 2.05932C6.60868 1.97727 6.56258 1.86599 6.56258 1.74996V1.16663C6.56258 1.05059 6.60868 0.939314 6.69072 0.857267C6.77277 0.77522 6.88405 0.729126 7.00008 0.729126ZM2.56616 2.56604C2.6482 2.48411 2.75939 2.43809 2.87533 2.43809C2.99127 2.43809 3.10247 2.48411 3.1845 2.56604L3.41375 2.79471C3.49348 2.87719 3.53763 2.98768 3.53669 3.10239C3.53575 3.2171 3.48979 3.32685 3.40871 3.40801C3.32763 3.48916 3.21792 3.53523 3.10321 3.53628C2.9885 3.53733 2.87797 3.49328 2.79541 3.41363L2.56616 3.18438C2.48424 3.10234 2.43822 2.99115 2.43822 2.87521C2.43822 2.75927 2.48424 2.64807 2.56616 2.56604ZM11.434 2.56604C11.5159 2.64807 11.5619 2.75927 11.5619 2.87521C11.5619 2.99115 11.5159 3.10234 11.434 3.18438L11.2047 3.41363C11.1218 3.49091 11.0121 3.53298 10.8988 3.53098C10.7854 3.52898 10.6773 3.48306 10.5971 3.40291C10.517 3.32275 10.4711 3.21461 10.4691 3.10126C10.4671 2.98792 10.5091 2.87823 10.5864 2.79529L10.8157 2.56604C10.8977 2.48411 11.0089 2.43809 11.1248 2.43809C11.2408 2.43809 11.352 2.48411 11.434 2.56604ZM0.729248 6.99996C0.729248 6.88393 0.775342 6.77265 0.857389 6.6906C0.939436 6.60855 1.05072 6.56246 1.16675 6.56246H1.75008C1.86611 6.56246 1.97739 6.60855 2.05944 6.6906C2.14149 6.77265 2.18758 6.88393 2.18758 6.99996C2.18758 7.11599 2.14149 7.22727 2.05944 7.30932C1.97739 7.39137 1.86611 7.43746 1.75008 7.43746H1.16675C1.05072 7.43746 0.939436 7.39137 0.857389 7.30932C0.775342 7.22727 0.729248 7.11599 0.729248 6.99996ZM11.8126 6.99996C11.8126 6.88393 11.8587 6.77265 11.9407 6.6906C12.0228 6.60855 12.1341 6.56246 12.2501 6.56246H12.8334C12.9494 6.56246 13.0607 6.60855 13.1428 6.6906C13.2248 6.77265 13.2709 6.88393 13.2709 6.99996C13.2709 7.11599 13.2248 7.22727 13.1428 7.30932C13.0607 7.39137 12.9494 7.43746 12.8334 7.43746H12.2501C12.1341 7.43746 12.0228 7.39137 11.9407 7.30932C11.8587 7.22727 11.8126 7.11599 11.8126 6.99996Z" fill="black"/>
</g>
<defs>
<clipPath id="clip0_454_947">
<rect width="14" height="14" fill="white"/>
</clipPath>
</defs>
</svg>
