<svg width="14" height="14" viewBox="0 0 14 14" fill="none" xmlns="http://www.w3.org/2000/svg">
<path fill-rule="evenodd" clip-rule="evenodd" d="M4.66675 9.33329C4.66677 8.9434 4.76449 8.55973 4.95099 8.21733C5.13748 7.87494 5.4068 7.58473 5.73434 7.37323C6.06188 7.16173 6.4372 7.03568 6.82601 7.00659C7.21481 6.9775 7.60471 7.04631 7.96007 7.20672C8.31544 7.36713 8.62494 7.61403 8.8603 7.92487C9.09567 8.23571 9.24939 8.60057 9.30742 8.98612C9.36546 9.37166 9.32595 9.76561 9.19252 10.132C9.05909 10.4983 8.83598 10.8254 8.54358 11.0833H5.45658C5.20797 10.8646 5.00891 10.5954 4.8727 10.2936C4.7365 9.99179 4.66628 9.6644 4.66675 9.33329ZM5.23258 12.25H12.2501C12.4048 12.25 12.5532 12.1885 12.6626 12.0791C12.772 11.9697 12.8334 11.8213 12.8334 11.6666C12.8334 11.5119 12.772 11.3635 12.6626 11.2541C12.5532 11.1447 12.4048 11.0833 12.2501 11.0833H10.0317C10.3387 10.5512 10.5002 9.9477 10.5001 9.33341C10.5 8.71911 10.3381 8.11567 10.0309 7.58372C9.7237 7.05177 9.28188 6.61005 8.74987 6.30294C8.21785 5.99583 7.61438 5.83415 7.00008 5.83415C6.38579 5.83415 5.78231 5.99583 5.2503 6.30294C4.71828 6.61005 4.27646 7.05177 3.96924 7.58372C3.66202 8.11567 3.50021 8.71911 3.50008 9.33341C3.49995 9.9477 3.6615 10.5512 3.9685 11.0833H1.75008C1.59537 11.0833 1.447 11.1447 1.3376 11.2541C1.22821 11.3635 1.16675 11.5119 1.16675 11.6666C1.16675 11.8213 1.22821 11.9697 1.3376 12.0791C1.447 12.1885 1.59537 12.25 1.75008 12.25H5.23258ZM11.1248 5.20854C11.2342 5.31793 11.2956 5.46628 11.2956 5.62096C11.2956 5.77564 11.2342 5.92399 11.1248 6.03338L10.7124 6.44579C10.6024 6.55205 10.455 6.61085 10.3021 6.60952C10.1491 6.60819 10.0028 6.54684 9.89469 6.43869C9.78653 6.33053 9.72518 6.18422 9.72386 6.03128C9.72253 5.87833 9.78132 5.73098 9.88758 5.62096L10.3 5.20854C10.4094 5.09918 10.5577 5.03775 10.7124 5.03775C10.8671 5.03775 11.0154 5.09918 11.1248 5.20854ZM2.33341 9.91663C2.48812 9.91663 2.6365 9.85517 2.74589 9.74577C2.85529 9.63638 2.91675 9.488 2.91675 9.33329C2.91675 9.17858 2.85529 9.03021 2.74589 8.92081C2.6365 8.81142 2.48812 8.74996 2.33341 8.74996H1.75008C1.59537 8.74996 1.447 8.81142 1.3376 8.92081C1.22821 9.03021 1.16675 9.17858 1.16675 9.33329C1.16675 9.488 1.22821 9.63638 1.3376 9.74577C1.447 9.85517 1.59537 9.91663 1.75008 9.91663H2.33341ZM12.8334 9.33329C12.8334 9.488 12.772 9.63638 12.6626 9.74577C12.5532 9.85517 12.4048 9.91663 12.2501 9.91663H11.6667C11.512 9.91663 11.3637 9.85517 11.2543 9.74577C11.1449 9.63638 11.0834 9.488 11.0834 9.33329C11.0834 9.17858 11.1449 9.03021 11.2543 8.92081C11.3637 8.81142 11.512 8.74996 11.6667 8.74996H12.2501C12.4048 8.74996 12.5532 8.81142 12.6626 8.92081C12.772 9.03021 12.8334 9.17858 12.8334 9.33329ZM3.28775 6.44579C3.39777 6.55205 3.54512 6.61085 3.69807 6.60952C3.85101 6.60819 3.99732 6.54684 4.10548 6.43869C4.21363 6.33053 4.27498 6.18422 4.27631 6.03128C4.27764 5.87833 4.21884 5.73098 4.11258 5.62096L3.70016 5.20854C3.64635 5.15283 3.58199 5.10839 3.51082 5.07782C3.43965 5.04725 3.3631 5.03115 3.28565 5.03048C3.20819 5.02981 3.13138 5.04457 3.05969 5.0739C2.988 5.10323 2.92287 5.14654 2.8681 5.20131C2.81333 5.25608 2.77002 5.32121 2.74069 5.3929C2.71135 5.46459 2.6966 5.54141 2.69727 5.61886C2.69794 5.69631 2.71403 5.77286 2.74461 5.84403C2.77518 5.9152 2.81962 5.97957 2.87533 6.03338L3.28775 6.44579ZM7.58341 3.25846V1.74996C7.58341 1.59525 7.52196 1.44688 7.41256 1.33748C7.30316 1.22808 7.15479 1.16663 7.00008 1.16663C6.84537 1.16663 6.697 1.22808 6.5876 1.33748C6.47821 1.44688 6.41675 1.59525 6.41675 1.74996V3.25846L6.24583 3.08754C6.13581 2.98128 5.98846 2.92249 5.83551 2.92382C5.68257 2.92515 5.53626 2.98649 5.4281 3.09465C5.31995 3.2028 5.2586 3.34911 5.25727 3.50206C5.25594 3.65501 5.31474 3.80236 5.421 3.91238L6.58708 5.07846L6.59291 5.08429C6.70266 5.19188 6.85052 5.25166 7.0042 5.25057C7.15788 5.24948 7.30488 5.1876 7.41308 5.07846L8.57975 3.91238C8.68913 3.80292 8.75055 3.65449 8.75049 3.49975C8.75044 3.34501 8.68891 3.19663 8.57946 3.08725C8.47 2.97787 8.32157 2.91645 8.16683 2.91651C8.01209 2.91656 7.86371 2.97809 7.75433 3.08754L7.58341 3.25846Z" fill="#AAAAAA"/>
</svg>
