<svg width="14" height="14" viewBox="0 0 14 14" fill="none" xmlns="http://www.w3.org/2000/svg">
<path d="M11.6667 9.44996V4.54996C12.3667 4.31663 12.8334 3.67496 12.8334 2.91663C12.8334 1.92496 12.0751 1.16663 11.0834 1.16663C10.3251 1.16663 9.68342 1.63329 9.45008 2.33329H4.55008C4.31675 1.63329 3.67508 1.16663 2.91675 1.16663C1.92508 1.16663 1.16675 1.92496 1.16675 2.91663C1.16675 3.67496 1.63341 4.31663 2.33341 4.54996V9.44996C1.63341 9.68329 1.16675 10.325 1.16675 11.0833C1.16675 12.075 1.92508 12.8333 2.91675 12.8333C3.67508 12.8333 4.31675 12.3666 4.55008 11.6666H9.45008C9.68342 12.3666 10.3251 12.8333 11.0834 12.8333C12.0751 12.8333 12.8334 12.075 12.8334 11.0833C12.8334 10.325 12.3667 9.68329 11.6667 9.44996ZM9.45008 10.5H4.55008C4.37508 10.0333 3.96675 9.62496 3.50008 9.44996V4.54996C3.96675 4.37496 4.37508 3.96663 4.55008 3.49996H9.45008C9.62508 3.96663 10.0334 4.37496 10.5001 4.54996V9.44996C10.0334 9.62496 9.62508 10.0333 9.45008 10.5ZM11.0834 2.33329C11.4334 2.33329 11.6667 2.56663 11.6667 2.91663C11.6667 3.26663 11.4334 3.49996 11.0834 3.49996C10.7334 3.49996 10.5001 3.26663 10.5001 2.91663C10.5001 2.56663 10.7334 2.33329 11.0834 2.33329ZM2.91675 2.33329C3.26675 2.33329 3.50008 2.56663 3.50008 2.91663C3.50008 3.26663 3.26675 3.49996 2.91675 3.49996C2.56675 3.49996 2.33341 3.26663 2.33341 2.91663C2.33341 2.56663 2.56675 2.33329 2.91675 2.33329ZM2.91675 11.6666C2.56675 11.6666 2.33341 11.4333 2.33341 11.0833C2.33341 10.7333 2.56675 10.5 2.91675 10.5C3.26675 10.5 3.50008 10.7333 3.50008 11.0833C3.50008 11.4333 3.26675 11.6666 2.91675 11.6666ZM11.0834 11.6666C10.7334 11.6666 10.5001 11.4333 10.5001 11.0833C10.5001 10.7333 10.7334 10.5 11.0834 10.5C11.4334 10.5 11.6667 10.7333 11.6667 11.0833C11.6667 11.4333 11.4334 11.6666 11.0834 11.6666Z" fill="black"/>
</svg>
