<svg width="9" height="9" viewBox="0 0 9 9" fill="none" xmlns="http://www.w3.org/2000/svg">
<path d="M1 0.5H8C8.27614 0.5 8.5 0.723858 8.5 1V8C8.5 8.27614 8.27614 8.5 8 8.5H1C0.723858 8.5 0.5 8.27614 0.5 8V1C0.5 0.723858 0.723858 0.5 1 0.5Z" fill="#E1E1E1" stroke="#4B4B4B"/>
<path d="M5 7.5H4V6.5H5V7.5Z" fill="#4B4B4B"/>
<path d="M3.08579 2.08579C3.46086 1.71071 3.96957 1.5 4.5 1.5C5.03043 1.5 5.53914 1.71071 5.91421 2.08579C6.28929 2.46086 6.5 2.96957 6.5 3.5C6.5 4.75 5 4.875 5 6H4C4 4.375 5.5 4.5 5.5 3.5C5.5 3.23478 5.39464 2.98043 5.20711 2.79289C5.01957 2.60536 4.76522 2.5 4.5 2.5C4.23478 2.5 3.98043 2.60536 3.79289 2.79289C3.60536 2.98043 3.5 3.23478 3.5 3.5H2.5C2.5 2.96957 2.71071 2.46086 3.08579 2.08579Z" fill="#4B4B4B"/>
</svg>

