<svg width="19" height="19" viewBox="0 0 19 19" fill="none" xmlns="http://www.w3.org/2000/svg">
<path d="M14.8438 8.60938C14.1482 8.61121 13.4713 8.83426 12.9109 9.24628C12.3505 9.65829 11.9357 10.2379 11.7266 10.9013C11.5804 10.8685 11.431 10.852 11.2812 10.8523C10.1353 10.8523 9.20312 11.8171 9.20312 12.9965C9.20312 14.1758 10.1353 15.1406 11.2812 15.1406H14.8438C15.7098 15.1406 16.5405 14.7966 17.1529 14.1842C17.7653 13.5717 18.1094 12.7411 18.1094 11.875C18.1094 11.0089 17.7653 10.1783 17.1529 9.56586C16.5405 8.95344 15.7098 8.60938 14.8438 8.60938ZM14.8438 14.5469H11.2812C10.4648 14.5469 9.79688 13.8514 9.79688 12.9965C9.79688 12.1414 10.4648 11.446 11.2812 11.446C11.4668 11.4457 11.6506 11.4818 11.8223 11.5522C11.8627 11.5688 11.9063 11.5763 11.95 11.5741C11.9936 11.5719 12.0363 11.5601 12.0748 11.5395C12.1134 11.519 12.1469 11.4902 12.1731 11.4551C12.1992 11.4201 12.2173 11.3797 12.2261 11.3369C12.3278 10.8419 12.5679 10.3859 12.9184 10.0218C13.2689 9.65778 13.7155 9.40059 14.2063 9.28014C14.6971 9.15968 15.212 9.18089 15.6913 9.3413C16.1705 9.50172 16.5944 9.79476 16.9138 10.1864C17.2332 10.5781 17.435 11.0523 17.4957 11.554C17.5564 12.0557 17.4736 12.5643 17.2569 13.0209C17.0401 13.4774 16.6984 13.8631 16.2712 14.1332C15.8441 14.4033 15.3491 14.5468 14.8438 14.5469ZM1.48438 11.875V13.0625C1.48438 13.1412 1.4531 13.2168 1.39742 13.2724C1.34175 13.3281 1.26624 13.3594 1.1875 13.3594C1.10876 13.3594 1.03325 13.3281 0.977578 13.2724C0.921903 13.2168 0.890625 13.1412 0.890625 13.0625V11.875C0.890733 10.416 1.32085 8.98944 2.12722 7.77354C2.93358 6.55765 4.08043 5.60639 5.42441 5.03865C6.7684 4.47092 8.24991 4.31189 9.68377 4.58146C11.1176 4.85102 12.4402 5.53721 13.4863 6.55426C13.5338 6.61072 13.5585 6.68283 13.5557 6.75654C13.5529 6.83025 13.5228 6.90029 13.4712 6.953C13.4196 7.00571 13.3502 7.03732 13.2766 7.04168C13.203 7.04604 13.1303 7.02283 13.0729 6.97657C12.1103 6.04051 10.8932 5.409 9.57364 5.16101C8.25409 4.91303 6.89072 5.05958 5.65401 5.58233C4.41731 6.10508 3.36217 6.98083 2.62054 8.10007C1.87891 9.21931 1.48372 10.5324 1.48438 11.875ZM8.3125 7.42188C7.13188 7.42325 6.00001 7.89286 5.16518 8.72769C4.33036 9.56251 3.86075 10.6944 3.85938 11.875V13.0625C3.85938 13.1412 3.8281 13.2168 3.77242 13.2724C3.71675 13.3281 3.64124 13.3594 3.5625 13.3594C3.48376 13.3594 3.40825 13.3281 3.35258 13.2724C3.2969 13.2168 3.26562 13.1412 3.26562 13.0625V11.875C3.26556 10.9421 3.52408 10.0274 4.01245 9.2326C4.50083 8.43775 5.19996 7.79382 6.03221 7.37232C6.86445 6.95081 7.79724 6.76823 8.72698 6.84485C9.65673 6.92146 10.547 7.25428 11.2991 7.80633C11.3318 7.82891 11.3596 7.85783 11.3809 7.89136C11.4023 7.9249 11.4166 7.96238 11.4232 8.00158C11.4298 8.04078 11.4284 8.08089 11.4192 8.11955C11.41 8.15821 11.3931 8.19462 11.3695 8.22663C11.3459 8.25864 11.3162 8.28559 11.282 8.30589C11.2479 8.32619 11.21 8.33942 11.1706 8.34479C11.1312 8.35017 11.0912 8.34759 11.0528 8.3372C11.0144 8.32681 10.9785 8.30882 10.9473 8.2843C10.1842 7.72179 9.2605 7.41944 8.3125 7.42188ZM9.15191 9.63286C9.14317 9.67096 9.12698 9.70696 9.10429 9.73879C9.0816 9.77062 9.05284 9.79765 9.01967 9.81834C8.9865 9.83903 8.94957 9.85296 8.911 9.85934C8.87243 9.86572 8.83299 9.86442 8.79492 9.85551C8.48972 9.78267 8.17199 9.77989 7.86555 9.84737C7.55912 9.91486 7.27195 10.0509 7.02558 10.2452C6.77921 10.4395 6.58004 10.6871 6.44302 10.9693C6.30599 11.2516 6.23466 11.5612 6.23438 11.875V13.0625C6.23438 13.1412 6.2031 13.2168 6.14742 13.2724C6.09175 13.3281 6.01624 13.3594 5.9375 13.3594C5.85876 13.3594 5.78325 13.3281 5.72758 13.2724C5.6719 13.2168 5.64062 13.1412 5.64062 13.0625V11.875C5.64062 11.1664 5.92213 10.4868 6.4232 9.9857C6.92427 9.48463 7.60387 9.20313 8.3125 9.20313C8.52124 9.20396 8.72919 9.22887 8.93223 9.27735C9.00831 9.29568 9.07408 9.34332 9.11522 9.4099C9.15636 9.47648 9.16955 9.55661 9.15191 9.63286Z" fill="black"/>
</svg>
