<svg width="14" height="14" viewBox="0 0 14 14" fill="none" xmlns="http://www.w3.org/2000/svg">
<g clip-path="url(#clip0_454_856)">
<path d="M7.06821 0.313721L6.63125 1.56229L5.31344 5.32871L1.32335 5.31141L0 5.30518L1.05328 6.10707L4.22763 8.52453L2.97769 12.3131L2.56359 13.57L3.65149 12.8165L6.93111 10.5445L10.1491 12.9038L11.2162 13.6863L10.8353 12.4191L9.68721 8.59724L12.926 6.26633L14 5.49283L12.6774 5.46375L8.68795 5.37372L7.47193 1.57405L7.06821 0.313721ZM7.03082 3.10375L7.94008 5.94502L8.03633 6.24623L8.35209 6.25317L11.3346 6.31964L8.91368 8.06264L8.65677 8.24683L8.74818 8.54944L9.60617 11.4066L7.20048 9.64288L6.94563 9.45591L6.68595 9.63596L4.23386 11.3346L5.16871 8.50169L5.26705 8.20185L5.01568 8.01005L2.64321 6.20335L5.62575 6.21651L5.94152 6.21789L6.04607 5.91943L7.03082 3.10375Z" fill="black"/>
</g>
<defs>
<clipPath id="clip0_454_856">
<rect width="14" height="14" fill="white"/>
</clipPath>
</defs>
</svg>
