<svg width="28" height="28" viewBox="0 0 28 28" fill="none" xmlns="http://www.w3.org/2000/svg">
<path d="M14 14C16.0711 14 17.75 12.3211 17.75 10.25C17.75 8.17893 16.0711 6.5 14 6.5C11.9289 6.5 10.25 8.17893 10.25 10.25C10.25 12.3211 11.9289 14 14 14Z" stroke="#222222" stroke-width="2"/>
<path d="M14 26.5C20.9036 26.5 26.5 20.9036 26.5 14C26.5 7.09644 20.9036 1.5 14 1.5C7.09644 1.5 1.5 7.09644 1.5 14C1.5 20.9036 7.09644 26.5 14 26.5Z" stroke="#222222" stroke-width="2"/>
<path d="M21.4625 24C21.2625 20.385 20.1562 17.75 14 17.75C7.84373 17.75 6.73748 20.385 6.53748 24" stroke="#222222" stroke-width="2" stroke-linecap="round"/>
</svg>
