<svg width="22" height="17" viewBox="0 0 22 17" fill="none" xmlns="http://www.w3.org/2000/svg">
<path d="M11 0L21.3923 9H0.607696L11 0Z" fill="#205676"/>
<rect x="5" y="8" width="12" height="9" fill="#205676"/>
<path d="M4 0H7V6H4V0Z" fill="#205676"/>
<path d="M14.411 6.593V9.518H10.055V8.771H13.412V8.42H10.415V7.7H13.412V7.349H10.154V6.593H14.411ZM7.958 7.484V11.741H7.103V7.484H7.958ZM8.462 9.977V6.395H9.416V9.977C9.416 11.777 9.245 13.541 7.868 14.783C7.697 14.567 7.328 14.243 7.085 14.099C8.318 13.019 8.462 11.534 8.462 9.977ZM14.069 11.282V10.643H12.701V11.282H14.069ZM10.523 11.282H11.711V10.643H10.523V11.282ZM15.05 9.842V11.372H14.429V13.217C14.429 13.622 14.384 13.865 14.123 14.009C13.871 14.153 13.538 14.162 13.106 14.162C13.079 13.892 12.971 13.532 12.863 13.298C13.079 13.307 13.277 13.307 13.349 13.298C13.421 13.298 13.448 13.271 13.448 13.199V12.155H12.701V14.783H11.711V12.155H11.009V14.189H10.064V11.372H9.578V9.842H15.05Z" fill="white"/>
</svg>
