<svg width="19" height="17" viewBox="0 0 19 17" fill="none" xmlns="http://www.w3.org/2000/svg">
<path d="M8.625 12.875C8.52292 12.875 8.43542 12.8458 8.3625 12.7875C8.28958 12.7292 8.23854 12.6562 8.20937 12.5687C8.00521 11.9562 7.75729 11.4458 7.46563 11.0375C7.17396 10.6292 6.88229 10.2354 6.59063 9.85625C6.29896 9.47708 6.05454 9.08333 5.85738 8.675C5.66021 8.26667 5.56192 7.77083 5.5625 7.1875C5.5625 6.34167 5.86146 5.61979 6.45937 5.02187C7.05729 4.42396 7.77917 4.125 8.625 4.125C9.47083 4.125 10.1927 4.42396 10.7906 5.02187C11.3885 5.61979 11.6875 6.34167 11.6875 7.1875C11.6875 7.77083 11.5889 8.26667 11.3917 8.675C11.1946 9.08333 10.9505 9.47708 10.6594 9.85625C10.3677 10.2354 10.076 10.6292 9.78438 11.0375C9.49271 11.4458 9.24479 11.9562 9.04063 12.5687C9.01146 12.6562 8.96042 12.7292 8.8875 12.7875C8.81458 12.8458 8.72708 12.875 8.625 12.875ZM8.625 8.28125C8.93125 8.28125 9.19025 8.17537 9.402 7.96362C9.61375 7.75187 9.71933 7.49317 9.71875 7.1875C9.71875 6.88125 9.61287 6.62225 9.40112 6.4105C9.18937 6.19875 8.93067 6.09317 8.625 6.09375C8.31875 6.09375 8.05975 6.19963 7.848 6.41138C7.63625 6.62313 7.53067 6.88183 7.53125 7.1875C7.53125 7.49375 7.63713 7.75275 7.84888 7.9645C8.06063 8.17625 8.31933 8.28183 8.625 8.28125ZM8.625 16.375C6.4375 16.375 4.57812 15.6094 3.04688 14.0781C1.51562 12.5469 0.75 10.6875 0.75 8.5C0.75 7.40625 0.957958 6.38163 1.37388 5.42613C1.78979 4.47063 2.35096 3.63938 3.05737 2.93237C3.76496 2.22538 4.59621 1.66421 5.55113 1.24888C6.50604 0.833542 7.53067 0.625583 8.625 0.625C9.71875 0.625 10.7434 0.832958 11.6989 1.24888C12.6544 1.66479 13.4856 2.22596 14.1926 2.93237C14.8996 3.63996 15.4611 4.47121 15.877 5.42613C16.2929 6.38104 16.5006 7.40567 16.5 8.5V8.675L17.6594 7.49375L18.9062 8.71875L15.625 12L12.3438 8.71875L13.5906 7.49375L14.75 8.65312V8.5C14.75 6.80833 14.1521 5.36458 12.9563 4.16875C11.7604 2.97292 10.3167 2.375 8.625 2.375C6.93333 2.375 5.48958 2.97292 4.29375 4.16875C3.09792 5.36458 2.5 6.80833 2.5 8.5C2.51458 10.1917 3.116 11.6354 4.30425 12.8313C5.4925 14.0271 6.93275 14.625 8.625 14.625C9.45625 14.625 10.2365 14.4684 10.9656 14.1551C11.6948 13.8419 12.3365 13.4152 12.8906 12.875L14.1375 14.1219C13.4229 14.8219 12.5952 15.3725 11.6543 15.7739C10.7133 16.1752 9.70358 16.3756 8.625 16.375Z" fill="#323232"/>
</svg>
