<svg width="17" height="14" viewBox="0 0 17 14" fill="none" xmlns="http://www.w3.org/2000/svg">
<g clip-path="url(#clip0_214_67)">
<path d="M16.8649 12.652L9.2149 0.401953C9.05845 0.151484 8.7891 0 8.49984 0C8.21057 0 7.94123 0.151484 7.78478 0.401953L0.134777 12.652C0.0522216 12.7841 0.00577009 12.9368 0.00030155 13.0938C-0.00516699 13.2509 0.0305493 13.4065 0.103699 13.5445C0.176882 13.6823 0.284784 13.7974 0.416073 13.8776C0.547362 13.9577 0.697195 14 0.849839 14H16.1498C16.4609 14 16.747 13.8253 16.896 13.5442C16.9691 13.4063 17.0048 13.2507 16.9994 13.0937C16.9939 12.9367 16.9475 12.7841 16.8649 12.652ZM8.49984 2.4932L10.768 6.125H8.49984L6.79984 7.875L5.78887 6.8343L8.49984 2.4932Z" fill="#323232"/>
</g>
<defs>
<clipPath id="clip0_214_67">
<rect width="17" height="14" fill="white"/>
</clipPath>
</defs>
</svg>
