<svg width="15" height="15" viewBox="0 0 15 15" fill="none" xmlns="http://www.w3.org/2000/svg">
<path d="M6.06525 0.61308C6.44996 0.219859 6.96448 0 7.5 0C8.03552 0 8.55004 0.219859 8.93475 0.61308L14.2575 6.05183C14.4924 6.29178 14.6792 6.57915 14.8068 6.89686C14.9343 7.21456 15 7.55611 15 7.90116V13.1974C15 13.6698 14.8222 14.1229 14.5057 14.4569C14.1893 14.791 13.7601 14.9787 13.3125 14.9787H12.5145L12.4725 14.9676C12.0109 14.8486 11.5509 14.723 11.0925 14.5907C9.98929 14.2749 8.89732 13.9168 7.81875 13.5172C6.62625 13.07 5.46375 12.5554 4.60875 12.0123C4.17975 11.74 3.85425 11.4763 3.64125 11.2309C3.426 10.9823 3.375 10.809 3.375 10.7037C3.375 10.4567 3.525 10.1915 4.14 9.92308C4.74 9.66183 5.57475 9.49637 6.4935 9.34516L7.01475 9.26204C7.746 9.14646 8.49525 9.0277 9.10725 8.85987C9.48825 8.75458 9.85875 8.62079 10.1595 8.43158C10.4595 8.24158 10.7558 7.955 10.8585 7.52275C10.974 7.03429 10.7902 6.61154 10.5502 6.29804C10.3155 5.99245 9.9795 5.7217 9.6255 5.48183C9.1185 5.13745 8.47125 4.78754 7.83825 4.44554C7.59846 4.31679 7.35946 4.18643 7.12125 4.05445C6.24375 3.5652 5.52225 3.10287 5.139 2.64212C4.956 2.42125 4.8945 2.25262 4.88775 2.12754C4.881 2.01433 4.9125 1.84095 5.1165 1.58841C5.12243 1.58065 5.12818 1.57273 5.13375 1.56466L6.06525 0.61308ZM3.91125 2.81391L0.7425 6.05183C0.507579 6.29178 0.320783 6.57915 0.193226 6.89686C0.065669 7.21456 -4.29521e-05 7.55611 2.10635e-08 7.90116V13.1974C2.10635e-08 13.6698 0.17779 14.1229 0.494257 14.4569C0.810725 14.791 1.23995 14.9787 1.6875 14.9787H8.394C8.07515 14.8689 7.75762 14.7549 7.4415 14.6367C6.2265 14.1799 4.98 13.6336 4.02825 13.0296C3.5535 12.728 3.126 12.3962 2.81175 12.0321C2.49975 11.6727 2.25 11.2246 2.25 10.7037C2.25 9.69904 2.98575 9.14171 3.71175 8.82504C4.45275 8.50204 5.41575 8.32075 6.32025 8.1727C6.50925 8.14104 6.69525 8.11175 6.879 8.08245C7.60425 7.96766 8.2755 7.86079 8.8245 7.71037C9.16575 7.61616 9.417 7.51641 9.58275 7.41191C9.74925 7.30662 9.76575 7.24012 9.7665 7.23458C9.768 7.22825 9.77025 7.22033 9.7635 7.19895C9.74297 7.14257 9.71299 7.09055 9.675 7.04537C9.555 6.88704 9.33825 6.69862 9.0165 6.48012C8.559 6.16979 7.99275 5.86341 7.3815 5.53329C7.11862 5.39207 6.85661 5.24904 6.5955 5.10421C5.73975 4.62683 4.833 4.07504 4.29375 3.42587C4.13822 3.24303 4.00931 3.03678 3.91125 2.81391Z" fill="#323232"/>
</svg>
