<svg width="59" height="30" viewBox="0 0 59 30" fill="none" xmlns="http://www.w3.org/2000/svg">
<path d="M37.185 2.08C36.855 2.44 36.75 2.8 36.75 4.27V14.08H33.6V13.315H26.4V14.08H23.25V2.08H26.835C26.49 2.455 26.4 2.8 26.4 4.27V10.375H28.41V0.73H31.995C31.68 1.09 31.56 1.435 31.56 2.92V10.375H33.6V2.08H37.185ZM13.14 17.545C12.735 17.545 12.42 17.785 11.94 18.34C10.965 19.435 9.825 20.425 8.04 21.715H9.6C9.39 21.775 9.18 22.585 9.18 22.885V29.215H6.165V23.035C5.13 23.74 3.915 24.55 2.49 25.495L0.81 22.825C6.765 19.405 9.45 17.11 10.44 15.22L13.14 17.545ZM28.605 25.9H24.42L24.855 28.87L21.915 29.44L21.405 25.9H16.2V22.885H20.955L20.745 21.445H16.995V18.43H20.31L19.965 16.03L23.175 15.46C23.055 15.595 23.01 15.79 23.01 16.015C23.01 16.195 23.055 16.405 23.085 16.63L23.34 18.43H27.495V21.445H23.775L23.985 22.885H28.605V25.9ZM43.365 18.925C42.75 21.22 42.315 22.96 40.995 24.79L41.79 25.435L39.735 27.91L38.835 27.115C37.95 27.91 36.855 28.75 35.49 29.68L33.54 27.25C34.785 26.5 35.775 25.795 36.57 25.12L34.83 23.605L36.765 21.34L38.685 22.9C39.42 21.88 39.66 21.04 39.75 20.425H36.12C35.46 21.31 34.575 22.39 33.375 23.725L31.125 21.64C34.395 18.355 35.19 16.615 35.475 15.145L38.7 16.435C38.19 16.525 38.07 17.095 37.875 17.47H39.615C40.635 17.47 41.61 17.395 41.865 17.095L43.365 18.925ZM58.14 17.545C57.735 17.545 57.42 17.785 56.94 18.34C55.965 19.435 54.825 20.425 53.04 21.715H54.6C54.39 21.775 54.18 22.585 54.18 22.885V29.215H51.165V23.035C50.13 23.74 48.915 24.55 47.49 25.495L45.81 22.825C51.765 19.405 54.45 17.11 55.44 15.22L58.14 17.545Z" fill="#367B9D"/>
</svg>
